<svg width="1200" height="675" viewBox="0 0 1200 675" fill="none" xmlns="http://www.w3.org/2000/svg">
  <rect width="1200" height="675" rx="24" fill="#0F172A"/>
  <rect x="44" y="44" width="1112" height="587" rx="20" stroke="#334155" stroke-width="4"/>
  <rect x="120" y="180" width="280" height="220" rx="18" fill="#1E293B"/>
  <rect x="430" y="150" width="620" height="48" rx="12" fill="#64748B" fill-opacity="0.45"/>
  <rect x="430" y="220" width="520" height="28" rx="12" fill="#475569" fill-opacity="0.5"/>
  <rect x="430" y="270" width="560" height="28" rx="12" fill="#475569" fill-opacity="0.5"/>
  <rect x="430" y="330" width="400" height="28" rx="12" fill="#475569" fill-opacity="0.5"/>
  <path d="M236 352C236 302.771 274.771 264 324 264H336C385.229 264 424 302.771 424 352V376H236V352Z" fill="#8B5CF6" fill-opacity="0.8"/>
  <circle cx="330" cy="236" r="60" fill="#F8FAFC" fill-opacity="0.85"/>
  <rect x="170" y="420" width="220" height="22" rx="11" fill="#475569" fill-opacity="0.6"/>
  <rect x="170" y="460" width="150" height="22" rx="11" fill="#475569" fill-opacity="0.4"/>
  <circle cx="944" cy="464" r="78" fill="#22C55E" fill-opacity="0.2"/>
  <path d="M944 418L972 470H916L944 418Z" fill="#22C55E"/>
</svg>